<?xml version="1.0" encoding="iso-8859-1"?>
<!-- Generator: Adobe Illustrator 19.0.0, SVG Export Plug-In . SVG Version: 6.00 Build 0)  -->
<svg version="1.1" id="Capa_1" xmlns="http://www.w3.org/2000/svg" xmlns:xlink="http://www.w3.org/1999/xlink" x="0px" y="0px"
	 viewBox="0 0 344.438 344.438" style="enable-background:new 0 0 344.438 344.438;" xml:space="preserve">
<g>
	<g>
		<path d="M316.912,182.438c-4.8-89.6-64.8-103.2-99.6-103.2c-20,0-38,4-48,6.8c-0.4-3.2-0.8-7.6-0.8-12v-0.4c0-0.4,0-0.8,0-0.8
			c-0.4-14.8,1.6-33.6,10.8-46c5.2-7.2,12-11.2,21.2-12.4c4-0.4,6.8-4,6.4-8c-0.4-4-4-6.8-8-6.4c-13.2,1.6-23.6,8-31.2,18
			c-4,5.6-7.2,12.4-9.2,19.2c-2.4-4.4-5.6-8.4-9.2-12.4c-18.8-18.8-47.2-19.2-48.8-19.2c-2,0-4,0.8-5.2,2c-1.2,1.2-2,3.2-2,5.2
			c0,1.2,0.8,30,19.2,48.8c13.2,13.2,32,17.6,41.6,18.8c0,2,0.4,3.6,0.4,5.2c-10.4-2.8-27.2-6-45.6-6c-30.8,0-54.8,9.2-72,27.2
			c-1.6,1.6-2.4,4.4-2,6.8c0.4,2.4,2.4,4.4,4.8,5.2c20.4,7.2,34.4,26.8,34.4,48.4c0,9.2-2.4,18.4-7.6,26.4c-1.2,2-1.2,4.4-0.4,6.8
			c2.8,6.4,4.4,13.2,4.4,20.4c0,23.2-15.6,43.6-38,49.6c-2,0.4-4,2-4.8,4s-0.8,4.4,0.4,6.4c20,38.4,57.2,63.6,94.4,63.6
			c15.2,0,29.2-4.4,40-12.4c10.8,8,25.2,12.4,40.4,12.4c26.4,0,53.6-12.8,74.4-34.4
			C297.312,288.838,320.512,249.238,316.912,182.438z M122.512,51.238c-9.2-9.2-12.8-22-14-30.4c8.4,1.6,21.2,5.2,30.4,14
			c9.2,9.2,12.8,22,14,30.4C144.512,64.038,131.712,60.438,122.512,51.238z M266.512,300.038c-18,19.2-41.2,30-64,30
			c-14,0-26.4-4.4-35.2-12.4c-1.2-1.2-3.2-2-4.8-2c-1.6,0-3.6,0.8-4.8,2c-8.8,8-21.2,12.4-35.2,12.4c-29.6,0-59.6-18.8-78-48.4
			c24-10.8,40-34.4,40-60.8c0-8-1.2-15.6-4-22.8c5.2-9.6,7.6-20,7.6-30.8c0-24-13.2-45.6-33.2-57.2c13.6-10.4,31.6-15.6,53.6-15.6
			c27.6,0,51.2,8.4,51.6,8.4s0.8,0,1.6,0.4c0.4,0,0.8,0,1.2,0c0.4,0,0.8,0,1.2,0h0.4c0.4,0,0.4,0,0.8,0c0.4,0,24-8.8,51.6-8.8
			c53.2,0,82,30,85.2,88.8C305.712,244.838,284.912,280.838,266.512,300.038z"/>
	</g>
</g>
<g>
</g>
<g>
</g>
<g>
</g>
<g>
</g>
<g>
</g>
<g>
</g>
<g>
</g>
<g>
</g>
<g>
</g>
<g>
</g>
<g>
</g>
<g>
</g>
<g>
</g>
<g>
</g>
<g>
</g>
</svg>
