<?xml version="1.0" encoding="iso-8859-1"?>
<!-- Generator: Adobe Illustrator 19.0.0, SVG Export Plug-In . SVG Version: 6.00 Build 0)  -->
<svg version="1.1" id="Capa_1" xmlns="http://www.w3.org/2000/svg" xmlns:xlink="http://www.w3.org/1999/xlink" x="0px" y="0px"
	 viewBox="0 0 359.78 359.78" style="enable-background:new 0 0 359.78 359.78;" xml:space="preserve">
<g>
	<g>
		<path d="M349.2,156.69c-6.8-10-18-9.2-33.2-4.8c18.4-29.6,17.6-57.2-2.8-76.8c-11.6-11.2-28-2-50.4,10.4
			c-26.8,15.2-63.2,35.6-111.2,34.8c-20-0.4-42-12.8-56.8-21.2l-3.2-2c0,0,0-0.4-0.4-0.4c-2.8-5.2-5.2-9.6-7.6-13.6h25.2
			c8.4,0,15.6-6.8,15.6-15.6v-26.8c0-8.4-6.8-15.6-15.6-15.6H15.6c-8.4,0-15.6,6.8-15.6,15.6v26.8c0,8.4,6.8,15.6,15.6,15.6h23.6
			c-7.2,9.6-13.6,22.8-18,35.2c-19.6,55.2-17.6,133.2,47.2,186c23.6,19.2,62.4,30.4,106.4,30.4c54.8,0,102.8-17.2,122.4-43.2
			c7.2-10,10.8-20.8,10-32.4c29.2-18.8,47.6-41.2,51.6-62.8C361.6,182.29,358.4,168.69,349.2,156.69z M151.2,135.09
			c51.6,0.8,92-21.6,118.8-36.8c14.4-8,29.2-16.4,33.2-12.8c26,24.8,2,59.6-11.2,74.4c-28.4,9.6-65.6,21.2-109.2,12.4
			c-40.8-8-62.8-30-77.2-51.2C119.2,128.29,135.2,134.69,151.2,135.09z M15.6,68.69c-0.4,0-0.8-0.4-0.8-1.2v-26.8
			c0-0.4,0.4-1.2,1.2-1.2h92.8c0.4,0,1.2,0.4,1.2,1.2v26.8c0,0.4-0.4,1.2-1.2,1.2H15.6z M285.6,282.69
			c-16.8,22.4-61.2,37.6-110.8,37.6c-40.8,0-76-10-97.2-27.2c-71.6-58.4-52-140.8-44.4-164.8c10-31.2,23.6-44.8,27.6-45.2
			c2.8,0,4.8,12.4,6,22c4.4,29.6,11.6,79.2,68,112.8c44.4,26.4,90.8,26.4,121.2,26.8c16.4,0,33.6,0,35.2,5.2
			C294.8,262.29,292.8,272.69,285.6,282.69z M344.8,193.49c-3.2,16.4-18,34.4-40.8,50.4c-5.6-13.2-23.6-13.6-48-13.6
			c-30.8,0-72.8-0.4-114-24.8c-45.2-27.2-54.8-65.2-59.6-93.6c14.4,26.8,39.2,63.6,97.2,75.2c50.8,10,94.4-5.2,123.2-15.2
			c15.6-5.6,31.6-11.2,34.8-6.8C344.4,173.89,346.8,183.49,344.8,193.49z"/>
	</g>
</g>
<g>
	<g>
		<path d="M225.6,258.29c-0.8-4-4.8-6.8-8.4-6.4c-92,14.8-134.4-60-136-63.2c-2-3.6-6.4-4.8-10-2.8c-3.6,2-4.8,6.4-2.8,10
			c0.4,0.8,40.8,72.8,125.6,72.8c8,0,16.8-0.8,25.6-2C223.6,265.89,226.4,262.29,225.6,258.29z"/>
	</g>
</g>
<g>
</g>
<g>
</g>
<g>
</g>
<g>
</g>
<g>
</g>
<g>
</g>
<g>
</g>
<g>
</g>
<g>
</g>
<g>
</g>
<g>
</g>
<g>
</g>
<g>
</g>
<g>
</g>
<g>
</g>
</svg>
