<?xml version="1.0" encoding="iso-8859-1"?>
<!-- Generator: Adobe Illustrator 19.0.0, SVG Export Plug-In . SVG Version: 6.00 Build 0)  -->
<svg version="1.1" id="Capa_1" xmlns="http://www.w3.org/2000/svg" xmlns:xlink="http://www.w3.org/1999/xlink" x="0px" y="0px"
	 viewBox="0 0 382 382" style="enable-background:new 0 0 382 382;" xml:space="preserve">
<g>
	<g>
		<path d="M270.8,63.71c2.4-18.8,8.8-39.2,23.2-46c3.6-1.6,5.2-6,3.6-9.6c-1.6-3.6-6-5.2-9.6-3.6c-22,9.6-29.6,36.8-32,59.2
			c-48,2.8-90,34-106,79.2c-9.6-2.4-20-4-30.4-4c-66,0-119.6,53.6-119.6,119.6s53.6,119.6,119.6,119.6c51.6,0,96-33.2,112.4-79.2
			c10,2.8,20,4,30.4,4c66,0,119.6-53.6,119.6-119.6C382,119.71,332.8,68.11,270.8,63.71z M119.6,363.31
			c-58,0-104.8-47.2-104.8-104.8c0-57.6,47.2-104.8,104.8-104.8s104.8,47.2,104.8,104.8C224.4,316.11,177.6,363.31,119.6,363.31z
			 M262.8,287.71c-8.8,0-17.6-1.2-26.4-3.2c2-8.4,2.8-17.2,2.8-26c0-50.4-31.2-93.2-75.2-110.8c14-38.8,50-66,91.2-69.2
			c-0.4,9.6,0.4,16.4,0.4,17.2c0.4,3.6,3.6,6.8,7.2,6.8c0,0,0.4,0,0.8,0c4-0.4,6.8-4,6.8-8c-0.4-4-0.4-9.6-0.4-16
			c54.8,3.6,98,49.2,98,104.4C367.6,240.91,320.4,287.71,262.8,287.71z"/>
	</g>
</g>
<g>
	<g>
		<path d="M119.6,165.31c-51.2,0-93.2,41.6-93.2,93.2s41.6,93.2,93.2,93.2c51.6,0,93.2-41.6,93.2-93.2
			C212.8,206.91,171.2,165.31,119.6,165.31z M59.2,208.11l42.8,42.8H41.6C43.2,234.91,49.6,220.11,59.2,208.11z M41.6,265.71H102
			l-42.8,42.8C49.2,296.51,42.8,281.71,41.6,265.71z M112.4,336.11c-16-1.6-30.8-8-42.8-17.6l42.8-42.8V336.11z M112.4,240.51
			l-42.8-42.8c12-10,26.8-16.4,42.8-17.6V240.51z M197.6,250.91h-60.4l42.8-42.8C190,220.11,196.4,234.91,197.6,250.91z
			 M127.2,180.11c16,1.6,30.8,8,42.8,17.6l-42.8,42.8V180.11z M127.2,336.11v-60.4l42.8,42.8C158,328.51,143.2,334.91,127.2,336.11z
			 M180,308.51l-42.8-42.8h60.4C196,281.71,189.6,296.51,180,308.51z"/>
	</g>
</g>
<g>
	<g>
		<path d="M284.4,90.91c-4,0-7.2,3.2-7.2,7.2c0,8-6.4,14.4-14.4,14.4s-14.4-6.4-14.4-14.4c0-4-3.2-7.2-7.2-7.2s-7.2,3.2-7.2,7.2
			c0,16,13.2,29.2,29.2,29.2s29.2-13.2,29.2-29.2C292,94.11,288.4,90.91,284.4,90.91z"/>
	</g>
</g>
<g>
</g>
<g>
</g>
<g>
</g>
<g>
</g>
<g>
</g>
<g>
</g>
<g>
</g>
<g>
</g>
<g>
</g>
<g>
</g>
<g>
</g>
<g>
</g>
<g>
</g>
<g>
</g>
<g>
</g>
</svg>
