<?xml version="1.0" encoding="iso-8859-1"?>
<!-- Generator: Adobe Illustrator 19.0.0, SVG Export Plug-In . SVG Version: 6.00 Build 0)  -->
<svg version="1.1" id="Capa_1" xmlns="http://www.w3.org/2000/svg" xmlns:xlink="http://www.w3.org/1999/xlink" x="0px" y="0px"
	 viewBox="0 0 423.2 423.2" style="enable-background:new 0 0 423.2 423.2;" xml:space="preserve">
<g>
	<g>
		<path d="M350.6,62c-0.8-3.2-4.8-5.6-8.4-5.6c-2,0-37.6,0.4-71.2,23.6c10.8-15.2,26.4-31.2,46.8-42c3.2-1.6,4.4-5.2,3.6-8.4
			s-4-5.6-7.6-5.2c-2.4,0.4-49.6,4.8-78,38c-2-22-7.2-52-20.8-61.2c-0.4,0-0.8-0.4-0.8-0.4c-0.4-0.4-1.2-0.4-1.6-0.8
			c-0.4,0-1.2,0-1.6,0c-0.4,0-0.8,0-1.2,0c-0.8,0-1.2,0.4-2,0.8c-0.4,0-0.4,0-0.8,0.4c-13.6,9.2-18.8,39.2-20.8,61.2
			c-28.4-33.2-76-38-78-38c-3.6-0.4-6.8,2-7.6,5.2c-0.8,3.2,0.4,6.8,3.6,8.4c20.4,10.8,36,26.8,46.8,42
			c-33.6-23.2-69.2-23.6-71.2-23.6c-3.6,0-6.4,2.4-7.2,6c-0.8,3.6,1.2,6.8,4.4,8c56,22,81.6,88,87.2,104.4
			c-7.6,4.8-14.8,10.8-21.2,18c0,0-0.4,0-0.4,0.4c-0.4,0.4-0.8,1.2-1.2,1.6c-14,16-24.8,37.2-30.4,60.8c0,0.4,0,0.4,0,0.8
			c-2.4,11.2-4,23.2-4,35.6c0,1.6,0,3.6,0.4,5.2c0,0.4,0,0.8,0,1.2c0.8,24.8,7.2,47.6,17.6,66.8c0,0.4,0.4,0.4,0.4,0.8
			c11.6,21.6,28.4,38.4,48,48c0.4,0.4,1.2,0.8,1.6,0.8c11.6,5.6,23.6,8.4,36.8,8.4c13.2,0,25.2-3.2,36.8-8.4c0.4,0,1.2-0.4,1.6-0.8
			c20-10,37.2-27.6,48.8-50.4c0.4-0.4,0.4-0.8,0.8-1.2c9.6-18.8,15.2-40.4,16-64c0-0.4,0-0.8,0-1.2c0-1.6,0.4-3.2,0.4-5.2
			c0-12.4-1.6-24.4-4-35.6c0-0.4,0-0.4,0-0.8c-5.6-24-16-44.8-30.4-61.2c-0.4-0.4-0.8-1.2-1.2-1.6c0,0-0.4,0-0.4-0.4
			c-6.4-7.2-13.6-13.2-21.2-18C264.6,158,290.2,92,346.2,70C349.4,68.8,351.4,65.2,350.6,62z M187.4,179.2l13.2,14L175.8,220
			l-19.2-21.2C165.8,189.6,176.2,183.2,187.4,179.2z M210.6,204l25.2,27.2l-24.8,28l-25.6-28.4L210.6,204z M203.8,175.6
			c2-0.4,4.4-0.4,6.8-0.4s4.4,0.4,6.8,0.4l-6.8,7.2L203.8,175.6z M211.4,281.2l32,35.6l-32.8,38.8L179,318.4L211.4,281.2z
			 M169.8,306.4L143.4,276l32.4-34.8l26,28.8L169.8,306.4z M221,270.4l24.8-28.4l32,34.4L252.6,306L221,270.4z M147,209.6l18.8,21.2
			l-32,34.4l-8.4-10C129.8,237.6,137.4,222.4,147,209.6z M121.8,273.6l2,2l-2.4,2.8C121.4,276.8,121.8,275.2,121.8,273.6z M121,300
			l12.4-13.2l26.4,31.2l-27.2,31.2C125.8,334.4,122.2,318,121,300z M174.2,398.4c-13.6-7.6-25.6-20-34.8-35.2l29.6-34l32,37.6
			L174.2,398.4z M210.6,408.8c-8,0-15.2-1.6-22.8-4l22.8-26.8l22.8,26.8C226.2,407.2,218.6,408.8,210.6,408.8z M247,398.4
			l-26.8-31.6l33.2-38.8l29.6,33.2C273.8,377.2,261.4,390.4,247,398.4z M289.8,346.8l-27.2-30l25.2-29.6l12.4,13.2
			C299.4,316.8,295.8,332.8,289.8,346.8z M299.4,273.2c0,1.6,0.4,3.2,0.4,4.8l-2.4-2.4L299.4,273.2z M295.8,255.2l-8.4,10l-31.6-34
			l18.8-21.2C283.8,222.4,291.4,237.6,295.8,255.2z M264.6,198.8l-18.8,21.6l-25.2-26.8l13.2-14C245,183.2,255.4,190,264.6,198.8z
			 M244.6,168c-3.2-1.6-6.8-2.8-10-3.6c-0.4,0-0.8-0.4-1.2-0.4c-7.2-2-15.2-3.2-22.8-3.2c-8,0-15.6,1.2-22.8,3.2
			c-0.4,0-0.8,0-0.8,0.4c-3.6,1.2-6.8,2.4-10,3.6c-5.6-16.4-22.8-58-57.2-88c18.4,7.6,39.6,21.6,54.8,47.6c2,3.2,5.6,4.4,9.2,3.2
			c3.2-1.6,5.2-5.2,4-8.8c-0.8-2-12.4-41.2-44.8-72.4c16,7.2,32.8,19.2,42,39.2c1.6,3.2,4.8,4.8,8,4c3.2-0.8,5.6-3.6,5.6-7.2
			c0.4-21.6,4-54.4,11.6-67.6c7.2,12.8,11.2,45.6,11.6,67.6c0,3.6,2.4,6.4,5.6,7.2c3.2,0.8,6.8-0.8,8-4c9.2-19.6,26-32,42-39.2
			C245,81.2,233.4,120,233,122c-1.2,3.6,0.8,7.2,4,8.8c3.2,1.6,7.2,0,9.2-3.2c15.2-26.4,36.8-40.4,55.6-48
			C267.4,109.2,250.2,151.6,244.6,168z"/>
	</g>
</g>
<g>
</g>
<g>
</g>
<g>
</g>
<g>
</g>
<g>
</g>
<g>
</g>
<g>
</g>
<g>
</g>
<g>
</g>
<g>
</g>
<g>
</g>
<g>
</g>
<g>
</g>
<g>
</g>
<g>
</g>
</svg>
